<svg width="32" height="32" viewBox="0 0 32 32" fill="none" xmlns="http://www.w3.org/2000/svg">
<path d="M22 3.76666C18.4407 3.76666 16.3313 6.26694 16.0237 7.24567C16.0173 7.26612 15.984 7.26577 15.9784 7.24506C15.716 6.27113 14.306 3.76666 10 3.76666C5.89335 3.76666 2.66669 6.99333 2.66669 11.1C2.66669 16.14 7.20002 20.2467 14.0667 26.4867L15.8654 28.1117C15.9418 28.1807 16.058 28.1805 16.1341 28.1112L17.9334 26.4733C24.8 20.2467 29.3334 16.14 29.3334 11.1C29.3334 6.99333 26.1067 3.76666 22 3.76666ZM16.1334 24.5C16.0597 24.5736 15.9403 24.5736 15.8667 24.5C9.52002 18.7533 5.33335 14.9533 5.33335 11.1C5.33335 8.43333 7.33335 6.43333 10 6.43333C14.0855 6.43333 15.3105 9.27942 15.9812 11.2771C15.9873 11.2953 16.0127 11.2953 16.0189 11.2771C16.6918 9.27945 18.0374 6.43333 22 6.43333C24.6667 6.43333 26.6667 8.43333 26.6667 11.1C26.6667 14.9533 22.48 18.7533 16.1334 24.5Z" fill="#BABAB8"/>
</svg>
