<svg width="24" height="24" viewBox="0 0 24 24" fill="none" xmlns="http://www.w3.org/2000/svg">
<g id="Icon/Outline/Help/M">
<path id="Vector" d="M13.25 16.74C13.25 17.43 12.72 18 12 18C11.3 18 10.74 17.44 10.74 16.74C10.74 16.03 11.3 15.49 12 15.49C12.71 15.49 13.25 16.04 13.25 16.74ZM11.99 6C10.2973 6 9.11681 7.0517 8.62333 8.31551C8.58525 8.41304 8.63464 8.5214 8.73114 8.56201L10.0001 9.09589C10.1078 9.1412 10.2306 9.08469 10.2749 8.97658C10.5289 8.35668 11.0456 7.7 12 7.7C13.62 7.7 13.94 9.22 13.37 10.03C12.83 10.8 11.9 11.32 11.41 12.19C11.0693 12.7927 11.0873 13.4794 11.0973 13.9701C11.0995 14.0805 11.1895 14.17 11.3 14.17H12.72C12.8305 14.17 12.9198 14.08 12.9212 13.9695C12.9312 13.2104 13.0015 13.0279 13.14 12.76C13.53 12.04 14.25 11.7 15.01 10.59C15.69 9.59 15.43 8.23 14.99 7.51C14.48 6.67 13.47 6 11.99 6ZM19 5.2C19 5.08954 18.9105 5 18.8 5H5.2C5.08954 5 5 5.08954 5 5.2V18.8C5 18.9105 5.08954 19 5.2 19H18.8C18.9105 19 19 18.9105 19 18.8V5.2ZM20.8 3C20.9105 3 21 3.08946 21 3.19991C21 3.52477 21 4.21093 21 5V20.8C21 20.9105 20.9105 21 20.8 21H3.20006C3.0896 21 3.00006 20.9105 3.00006 20.8L3 3.2C3 3.08955 3.08945 3.00001 3.19991 3C3.52477 3 4.21092 3 5 3H20.8Z" fill="#BABAB8"/>
</g>
</svg>
