<svg width="24" height="24" viewBox="0 0 24 24" fill="none" xmlns="http://www.w3.org/2000/svg">
<path d="M21.6357 12.3571C21.6357 17.6827 17.3184 22 11.9928 22C6.66723 22 2.34998 17.6827 2.34998 12.3571C2.34998 7.03154 6.66723 2.71429 11.9928 2.71429C17.3184 2.71429 21.6357 7.03154 21.6357 12.3571Z" fill="#04050C"/>
<path d="M21.6357 11.6429C21.6357 16.9685 17.3184 21.2857 11.9928 21.2857C6.66723 21.2857 2.34998 16.9685 2.34998 11.6429C2.34998 6.31725 6.66723 2 11.9928 2C17.3184 2 21.6357 6.31725 21.6357 11.6429Z" fill="#0085FF"/>
<path fill-rule="evenodd" clip-rule="evenodd" d="M13.2596 3.71985C13.166 3.83814 12.3975 4.53579 12.3594 4.53692C12.3324 4.53774 11.9695 4.90398 11.9695 4.93043C11.9695 4.94044 11.7762 5.15782 11.54 5.41349C11.1347 5.85223 10.8977 6.12981 10.3742 6.77892C10.0365 7.1978 9.20852 8.3964 9.03606 8.71617C8.98903 8.80336 8.84706 9.05451 8.72058 9.27429C8.5117 9.63715 8.2408 10.1686 8.11615 10.4601C7.86773 11.0409 7.67807 11.5487 7.60444 11.8303C7.57485 11.9434 7.5581 12.0097 7.48706 12.2946C7.37762 12.7334 7.30893 13.4694 7.34759 13.7888C7.36178 13.906 7.37338 14.0869 7.37338 14.1909C7.37338 14.2957 7.38963 14.4402 7.40984 14.515C7.42988 14.5892 7.45386 14.6958 7.46312 14.7519C7.47974 14.8526 7.54491 15.1445 7.60471 15.386C7.64736 15.5583 7.79799 15.9724 7.89712 16.19C8.1837 16.8192 8.72274 17.4983 9.24884 17.8932C9.651 18.195 10.1301 18.4466 10.5416 18.5721C10.9741 18.7041 11.5698 18.7873 12.0704 18.7857C12.3059 18.785 12.8342 18.7284 12.9289 18.6938C12.9596 18.6826 13.0248 18.6669 13.0739 18.659C13.1726 18.6431 13.2151 18.6307 13.4755 18.5423C13.7819 18.4382 13.8209 18.4221 14.0445 18.3087C14.7202 17.9658 15.2848 17.4896 15.7236 16.8926C15.8413 16.7324 16.164 16.2042 16.164 16.1717C16.164 16.1648 16.1941 16.0932 16.2309 16.0124C16.2677 15.9317 16.2979 15.8586 16.2979 15.8501C16.2979 15.8415 16.3121 15.8024 16.3296 15.7631C16.3781 15.6539 16.4684 15.3665 16.498 15.2275C16.5125 15.159 16.5341 15.0705 16.5459 15.0309C16.5743 14.9354 16.6257 14.525 16.6446 14.2423C16.6615 13.9891 16.6266 13.5127 16.5732 13.2684C16.5541 13.1812 16.5309 13.064 16.5216 13.008C16.4934 12.8384 16.3229 12.3778 16.1904 12.1134C16.0414 11.8159 15.5568 11.0414 15.1275 10.4148C14.9568 10.1656 14.7869 9.91595 14.7498 9.8599C14.7128 9.80384 14.5683 9.59179 14.4289 9.38866C14.2895 9.18553 14.0924 8.87978 13.9909 8.70922C13.8894 8.53865 13.7689 8.33994 13.7231 8.26762C13.65 8.15212 13.4983 7.85629 13.39 7.61774C13.3547 7.54008 13.2717 7.28773 13.2075 7.06286C13.1897 7.00058 13.1534 6.83751 13.1268 6.70049C13.0833 6.47657 13.0782 6.37348 13.0762 5.68133C13.0742 5.01763 13.0793 4.8894 13.113 4.75276C13.1345 4.66556 13.1684 4.52798 13.1883 4.44701C13.2082 4.36604 13.2323 4.24687 13.2419 4.18216C13.2515 4.11748 13.2668 4.0523 13.2759 4.03733C13.2851 4.02234 13.3047 3.94787 13.3196 3.87184C13.3345 3.79581 13.3541 3.71577 13.3633 3.69396C13.3908 3.62822 13.3176 3.64649 13.2596 3.71985ZM14.5875 11.2664C14.7288 11.3614 14.867 11.5253 15.0343 11.7963C15.3033 12.2322 15.5301 12.7396 15.594 13.0483C15.6385 13.2636 15.6615 13.8276 15.6322 13.9858C15.5966 14.1777 15.4753 14.4435 15.3645 14.572C15.3059 14.6401 15.2133 14.7131 15.1346 14.7535C15.0189 14.8128 14.9789 14.8211 14.8072 14.8219C14.5977 14.8229 14.4897 14.7954 14.3294 14.7001C14.1296 14.5812 13.9982 14.3814 13.9512 14.1251C13.9267 13.9909 13.9284 13.9813 14.0417 13.6284C14.2993 12.826 14.2822 12.8857 14.3919 12.4078C14.502 11.9281 14.5389 11.4831 14.4836 11.3037C14.4653 11.2445 14.4577 11.1961 14.4667 11.1961C14.4757 11.1961 14.53 11.2277 14.5875 11.2664Z" fill="#04050C"/>
</svg>
