<svg width="16" height="16" viewBox="0 0 16 16" fill="none" xmlns="http://www.w3.org/2000/svg">
<g id="Icon/Outline/Minus/M">
<path id="Vector" d="M14 2.20003C14 2.08957 13.9105 2.00003 13.8 2.00003L2.1999 2C2.08944 2 1.9999 2.08954 1.9999 2.2V13.8C1.9999 13.9105 2.08944 14 2.1999 14H13.7999C13.9104 14 13.9999 13.9105 13.9999 13.8L14 2.20003ZM12.6667 12.4666C12.6667 12.5771 12.5771 12.6666 12.4667 12.6666H3.53333C3.42288 12.6666 3.33334 12.5771 3.33334 12.4666V3.5333C3.33334 3.42285 3.42288 3.3333 3.53334 3.3333H12.4667C12.5771 3.3333 12.6667 3.42285 12.6667 3.5333V12.4666ZM4.66667 7.53331C4.66667 7.42285 4.75621 7.3333 4.86667 7.3333H11.1333C11.2438 7.3333 11.3333 7.42285 11.3333 7.5333V8.46664C11.3333 8.5771 11.2438 8.66664 11.1333 8.66664H4.86667C4.75621 8.66664 4.66667 8.5771 4.66667 8.46664V7.53331Z" fill="#CECECE"/>
</g>
</svg>
