<svg width="16" height="16" viewBox="0 0 16 16" fill="none" xmlns="http://www.w3.org/2000/svg">
<g id="Icon/Outline/Plus/M">
<path id="Vector" d="M14 2.2C14 2.08954 13.9104 2 13.8 2H2.19998C2.08953 2 1.99998 2.08954 1.99998 2.2L2 13.8C2 13.9105 2.08954 14 2.2 14H13.8C13.9104 14 14 13.9105 14 13.8V2.2ZM12.6667 12.4667C12.6667 12.5771 12.5771 12.6667 12.4667 12.6667H3.53333C3.42288 12.6667 3.33333 12.5771 3.33333 12.4667V3.53333C3.33333 3.42288 3.42288 3.33333 3.53333 3.33333H12.4667C12.5771 3.33333 12.6667 3.42288 12.6667 3.53333V12.4667ZM7.33333 11.1333C7.33333 11.2438 7.42288 11.3333 7.53333 11.3333H8.46667C8.57712 11.3333 8.66667 11.2438 8.66667 11.1333V8.86667C8.66667 8.75621 8.75621 8.66667 8.86667 8.66667H11.1333C11.2438 8.66667 11.3333 8.57712 11.3333 8.46667V7.53333C11.3333 7.42288 11.2438 7.33333 11.1333 7.33333H8.86667C8.75621 7.33333 8.66667 7.24379 8.66667 7.13333V4.86667C8.66667 4.75621 8.57712 4.66667 8.46667 4.66667H7.53333C7.42288 4.66667 7.33333 4.75621 7.33333 4.86667V7.13333C7.33333 7.24379 7.24379 7.33333 7.13333 7.33333H4.86667C4.75621 7.33333 4.66667 7.42288 4.66667 7.53333V8.46667C4.66667 8.57712 4.75621 8.66667 4.86667 8.66667H7.13333C7.24379 8.66667 7.33333 8.75621 7.33333 8.86667V11.1333Z" fill="#BABAB8"/>
</g>
</svg>
